<svg xmlns="http://www.w3.org/2000/svg" width="71" height="71" viewBox="0 0 71 71">
  <g id="audio_call_icon" transform="translate(-77 637)">
    <circle id="Ellipse_6" data-name="Ellipse 6" cx="35.5" cy="35.5" r="35.5" transform="translate(77 -637)" fill="#15192a"/>
    <g id="phone-call" transform="translate(96.656 -617)">
      <g id="Group_17" data-name="Group 17" transform="translate(0.344 0)">
        <path id="Path_10" data-name="Path 10" d="M24.625,44.677a3.025,3.025,0,0,0-2.194-1.006,3.128,3.128,0,0,0-2.22,1l-2.051,2.044c-.169-.091-.337-.175-.5-.26-.234-.117-.454-.227-.643-.344a22.291,22.291,0,0,1-5.341-4.868,13.151,13.151,0,0,1-1.752-2.765c.532-.487,1.025-.993,1.506-1.48.182-.182.363-.37.545-.552a2.978,2.978,0,0,0,0-4.491L10.2,30.184c-.2-.2-.409-.409-.6-.617-.389-.4-.8-.818-1.22-1.207a3.072,3.072,0,0,0-2.174-.954A3.179,3.179,0,0,0,4,28.36l-.013.013L1.78,30.6A4.748,4.748,0,0,0,.371,33.617,11.377,11.377,0,0,0,1.2,38.433a27.945,27.945,0,0,0,4.965,8.282,30.542,30.542,0,0,0,10.17,7.964,15.846,15.846,0,0,0,5.711,1.687c.136.006.279.013.409.013a4.891,4.891,0,0,0,3.745-1.61c.006-.013.019-.019.026-.032a14.754,14.754,0,0,1,1.136-1.175c.279-.266.565-.545.844-.837a3.238,3.238,0,0,0,.98-2.246,3.119,3.119,0,0,0-1-2.226Zm2.324,6.834c-.006,0-.006.006,0,0-.253.273-.513.519-.792.792A17.066,17.066,0,0,0,24.9,53.6a3.129,3.129,0,0,1-2.44,1.032c-.1,0-.2,0-.3-.006A14.077,14.077,0,0,1,17.1,53.107a28.83,28.83,0,0,1-9.58-7.5A26.349,26.349,0,0,1,2.85,37.823a9.267,9.267,0,0,1-.727-4.063,2.979,2.979,0,0,1,.9-1.928l2.213-2.213a1.475,1.475,0,0,1,.987-.461,1.388,1.388,0,0,1,.948.454l.019.019c.4.37.772.753,1.168,1.162.2.208.409.415.617.63L10.743,33.2a1.239,1.239,0,0,1,0,2.012c-.188.188-.37.376-.558.558-.545.558-1.064,1.077-1.629,1.584-.013.013-.026.019-.032.032a1.324,1.324,0,0,0-.337,1.473l.019.058a14.225,14.225,0,0,0,2.1,3.42l.006.006a23.821,23.821,0,0,0,5.763,5.244,8.861,8.861,0,0,0,.8.435c.234.117.454.227.643.344.026.013.052.032.078.045a1.407,1.407,0,0,0,.643.162,1.388,1.388,0,0,0,.987-.448l2.22-2.22a1.468,1.468,0,0,1,.98-.487,1.322,1.322,0,0,1,.935.474l.013.013,3.576,3.576A1.283,1.283,0,0,1,26.949,51.511Z" transform="translate(-0.344 -25.627)" fill="#0d6efd"/>
        <path id="Path_11" data-name="Path 11" d="M245.665,87.663a8.353,8.353,0,0,1,6.8,6.8.871.871,0,0,0,.863.727,1.158,1.158,0,0,0,.149-.013.877.877,0,0,0,.72-1.012,10.1,10.1,0,0,0-8.23-8.23.881.881,0,0,0-1.012.714A.867.867,0,0,0,245.665,87.663Z" transform="translate(-229.069 -80.349)" fill="#0d6efd"/>
        <path id="Path_12" data-name="Path 12" d="M263.345,13.565A16.631,16.631,0,0,0,249.793.014a.875.875,0,1,0-.286,1.726,14.855,14.855,0,0,1,12.111,12.111.871.871,0,0,0,.863.727,1.16,1.16,0,0,0,.149-.013A.86.86,0,0,0,263.345,13.565Z" transform="translate(-232.652 0)" fill="#0d6efd"/>
      </g>
    </g>
  </g>
</svg>
