<svg xmlns="http://www.w3.org/2000/svg" width="248.663" height="248.663" viewBox="0 0 248.663 248.663">
  <g id="call3" transform="translate(25 678)">
    <g id="call1">
      <g id="Group_8" data-name="Group 8">
        <g id="phone-call_1_" data-name="phone-call(1)" transform="translate(-25 -678)">
          <path id="Path_1" data-name="Path 1" d="M246.93,147.465A99.465,99.465,0,1,1,147.465,48,99.465,99.465,0,0,1,246.93,147.465Zm0,0" transform="translate(-23.134 -23.134)" fill="#00a225" opacity="0.3"/>
          <path id="Path_2" data-name="Path 2" d="M124.331,248.663A124.331,124.331,0,1,1,248.663,124.331,124.332,124.332,0,0,1,124.331,248.663Zm0-240.374A116.043,116.043,0,1,0,240.374,124.331,116.043,116.043,0,0,0,124.331,8.289Zm0,0" fill="#00a225"/>
          <path id="Path_3" data-name="Path 3" d="M128,152.864a24.868,24.868,0,0,1,38.783-20.611L173,167.432l-19.686,10.3a70.679,70.679,0,0,0,41.029,41.029l10.278-19.7,35.179,6.217a24.866,24.866,0,0,1-20.623,38.767A91.176,91.176,0,0,1,128,152.864Zm0,0" transform="translate(-61.69 -61.687)" fill="#00a225"/>
        </g>
      </g>
    </g>
  </g>
</svg>
