<svg xmlns="http://www.w3.org/2000/svg" width="71" height="71" viewBox="0 0 71 71">
  <g id="chat_icon" transform="translate(35 520)">
    <circle id="Ellipse_5" data-name="Ellipse 5" cx="35.5" cy="35.5" r="35.5" transform="translate(-35 -520)" fill="#15192a"/>
    <g id="chat_1_" data-name="chat(1)" transform="translate(-15 -500)">
      <g id="Group_16" data-name="Group 16" transform="translate(0 0)">
        <g id="Group_15" data-name="Group 15" transform="translate(0 0)">
          <path id="Path_9" data-name="Path 9" d="M28.141,18.413a1.2,1.2,0,0,0-2.227.9l1.415,3.5-4.2-1.852a1.2,1.2,0,0,0-.956-.006,11.582,11.582,0,0,1-4.572.923c-6.431,0-10.751-5.035-10.751-9.738C6.847,6.771,11.67,2.4,17.6,2.4S28.349,6.771,28.349,12.14a9.8,9.8,0,0,1-.107,1.376,1.2,1.2,0,1,0,2.376.354,12.122,12.122,0,0,0,.133-1.731A11.61,11.61,0,0,0,26.86,3.519,13.651,13.651,0,0,0,17.6,0,13.652,13.652,0,0,0,8.336,3.519a11.675,11.675,0,0,0-3.843,7.588A9.71,9.71,0,0,0,0,19.191a9.319,9.319,0,0,0,1.842,5.569L.088,29.1a1.2,1.2,0,0,0,1.6,1.549l5.059-2.23a11.432,11.432,0,0,0,4.006.714c.03,0,.06,0,.089,0A11.369,11.369,0,0,0,16.492,27.6a10.341,10.341,0,0,0,3.634-3.539,13.823,13.823,0,0,0,2.5-.694L29.066,26.2a1.2,1.2,0,0,0,1.6-1.549ZM10.751,26.727l-.049,0a9.009,9.009,0,0,1-3.51-.718,1.2,1.2,0,0,0-.956.006l-2.813,1.24.907-2.245a1.2,1.2,0,0,0-.2-1.229A7.011,7.011,0,0,1,2.4,19.191a7.147,7.147,0,0,1,2.22-5.118,12.126,12.126,0,0,0,3.553,6.494,13.427,13.427,0,0,0,8.739,3.7A8.828,8.828,0,0,1,10.751,26.727Z" transform="translate(0 0)" fill="#0d6efd"/>
          <circle id="Ellipse_1" data-name="Ellipse 1" cx="1.201" cy="1.201" r="1.201" transform="translate(16.337 10.991)" fill="#0d6efd"/>
          <circle id="Ellipse_2" data-name="Ellipse 2" cx="1.201" cy="1.201" r="1.201" transform="translate(21.141 10.991)" fill="#0d6efd"/>
          <circle id="Ellipse_3" data-name="Ellipse 3" cx="1.201" cy="1.201" r="1.201" transform="translate(11.532 10.991)" fill="#0d6efd"/>
        </g>
      </g>
    </g>
  </g>
</svg>
