<svg xmlns="http://www.w3.org/2000/svg" width="71" height="71" viewBox="0 0 71 71">
  <g id="video_call_icon" transform="translate(146 515)">
    <circle id="Ellipse_4" data-name="Ellipse 4" cx="35.5" cy="35.5" r="35.5" transform="translate(-146 -515)" fill="#15192a"/>
    <path id="video-camera_2_" data-name="video-camera(2)" d="M37.791,2.146a.81.81,0,0,0-.8-.015L28.228,6.916V4.045A4.05,4.05,0,0,0,24.183,0H4.046A4.05,4.05,0,0,0,0,4.045V20.017a4.05,4.05,0,0,0,4.045,4.045H24.183a4.05,4.05,0,0,0,4.045-4.045V17.2l8.762,4.784a.809.809,0,0,0,1.2-.71V2.842a.809.809,0,0,0-.4-.7ZM26.61,20.018a2.43,2.43,0,0,1-2.427,2.427H4.046a2.43,2.43,0,0,1-2.427-2.427V4.045A2.43,2.43,0,0,1,4.046,1.618H24.183A2.43,2.43,0,0,1,26.61,4.045Zm9.959-.108-8.341-4.554v-6.6l8.341-4.554Zm0,0" transform="translate(-129.501 -491.5)" fill="#0d6efd" stroke="#0d6eee" stroke-width="1"/>
  </g>
</svg>
